{
    "asset": {
        "generator": "Maya2glTF V0.9.7-BETA ab18f62",
        "version": "2.0"
    },
    "scenes": [
        {
            "nodes": [
                0
            ]
        }
    ],
    "scene": 0,
    "nodes": [
        {
            "children": [
                1
            ],
            "name": "DoorFrame2x2_25"
        },
        {
            "mesh": 0,
            "name": "DoorFrame2x2_25Shape"
        }
    ],
    "meshes": [
        {
            "primitives": [
                {
                    "attributes": {
                        "NORMAL": 1,
                        "POSITION": 2,
                        "TANGENT": 3,
                        "TEXCOORD_0": 4
                    },
                    "indices": 0,
                    "mode": 4,
                    "material": 0
                }
            ],
            "name": "DoorFrame2x2_25Shape"
        }
    ],
    "accessors": [
        {
            "bufferView": 0,
            "byteOffset": 0,
            "componentType": 5123,
            "count": 144,
            "max": [
                95
            ],
            "min": [
                0
            ],
            "type": "SCALAR"
        },
        {
            "bufferView": 1,
            "byteOffset": 0,
            "componentType": 5126,
            "count": 96,
            "max": [
                1.0,
                1.0,
                1.0
            ],
            "min": [
                -1.0,
                -1.0,
                -1.0
            ],
            "type": "VEC3"
        },
        {
            "bufferView": 1,
            "byteOffset": 1152,
            "componentType": 5126,
            "count": 96,
            "max": [
                1.0,
                2.25,
                0.1499996930360794
            ],
            "min": [
                -1.0,
                -5.722045770539808e-8,
                -0.14999938011169434
            ],
            "type": "VEC3"
        },
        {
            "bufferView": 2,
            "byteOffset": 0,
            "componentType": 5126,
            "count": 96,
            "max": [
                1.0,
                1.0,
                1.0,
                1.0
            ],
            "min": [
                -1.0,
                -0.00006818093243055046,
                -1.0,
                1.0
            ],
            "type": "VEC4"
        },
        {
            "bufferView": 3,
            "byteOffset": 0,
            "componentType": 5126,
            "count": 96,
            "max": [
                0.5224700570106506,
                0.8288885354995728
            ],
            "min": [
                0.48888230323791506,
                0.6179075241088867
            ],
            "type": "VEC2"
        }
    ],
    "materials": [
        {
            "pbrMetallicRoughness": {
                "baseColorFactor": [
                    1.0,
                    1.0,
                    1.0,
                    1.0
                ],
                "baseColorTexture": {
                    "index": 0
                },
                "metallicFactor": 0.0,
                "roughnessFactor": 1.0
            },
            "emissiveFactor": [
                0.0,
                0.0,
                0.0
            ],
            "occlusionTexture": {
                "index": 1
            }
        }
    ],
    "textures": [
        {
            "sampler": 0,
            "source": 0
        },
        {
            "sampler": 0,
            "source": 1
        }
    ],
    "images": [
        {
            "uri": "../Textures/ArchMods_Base_Color.jpg"
        },
        {
            "uri": "../Textures/ArchMods_Occlusion.jpg"
        }
    ],
    "samplers": [
        {
            "magFilter": 9729,
            "minFilter": 9987,
            "wrapS": 10497,
            "wrapT": 10497
        }
    ],
    "bufferViews": [
        {
            "buffer": 0,
            "byteOffset": 4608,
            "byteLength": 288,
            "target": 34963
        },
        {
            "buffer": 0,
            "byteOffset": 1536,
            "byteLength": 2304,
            "byteStride": 12,
            "target": 34962
        },
        {
            "buffer": 0,
            "byteOffset": 0,
            "byteLength": 1536,
            "byteStride": 16,
            "target": 34962
        },
        {
            "buffer": 0,
            "byteOffset": 3840,
            "byteLength": 768,
            "byteStride": 8,
            "target": 34962
        }
    ],
    "buffers": [
        {
            "byteLength": 4896,
            "uri": "DoorFrame2x2_250.bin"
        }
    ]
}
