{
    "asset": {
        "generator": "Maya2glTF V0.9.7-BETA ab18f62",
        "version": "2.0"
    },
    "scenes": [
        {
            "nodes": [
                0
            ]
        }
    ],
    "scene": 0,
    "nodes": [
        {
            "children": [
                1
            ],
            "name": "Pillar0_5x4_5Rnd"
        },
        {
            "mesh": 0,
            "name": "Pillar0_5x4_5RndShape"
        }
    ],
    "meshes": [
        {
            "primitives": [
                {
                    "attributes": {
                        "NORMAL": 1,
                        "POSITION": 2,
                        "TANGENT": 3,
                        "TEXCOORD_0": 4
                    },
                    "indices": 0,
                    "mode": 4,
                    "material": 0
                }
            ],
            "name": "Pillar0_5x4_5RndShape"
        }
    ],
    "accessors": [
        {
            "bufferView": 0,
            "byteOffset": 0,
            "componentType": 5123,
            "count": 96,
            "max": [
                33
            ],
            "min": [
                0
            ],
            "type": "SCALAR"
        },
        {
            "bufferView": 1,
            "byteOffset": 0,
            "componentType": 5126,
            "count": 34,
            "max": [
                1.0,
                0.0,
                1.0
            ],
            "min": [
                -1.0,
                0.0,
                -1.0
            ],
            "type": "VEC3"
        },
        {
            "bufferView": 1,
            "byteOffset": 408,
            "componentType": 5126,
            "count": 34,
            "max": [
                0.25,
                4.375,
                0.25
            ],
            "min": [
                -0.25,
                -0.125,
                -0.25
            ],
            "type": "VEC3"
        },
        {
            "bufferView": 2,
            "byteOffset": 0,
            "componentType": 5126,
            "count": 34,
            "max": [
                1.0,
                0.0,
                1.0,
                1.0
            ],
            "min": [
                -1.0,
                0.0,
                -1.0,
                1.0
            ],
            "type": "VEC4"
        },
        {
            "bufferView": 3,
            "byteOffset": 0,
            "componentType": 5126,
            "count": 34,
            "max": [
                0.1487981528043747,
                0.9983994364738464
            ],
            "min": [
                0.0024772081524133684,
                0.576524555683136
            ],
            "type": "VEC2"
        }
    ],
    "materials": [
        {
            "pbrMetallicRoughness": {
                "baseColorFactor": [
                    1.0,
                    1.0,
                    1.0,
                    1.0
                ],
                "baseColorTexture": {
                    "index": 0
                },
                "metallicFactor": 0.0,
                "roughnessFactor": 1.0
            },
            "emissiveFactor": [
                0.0,
                0.0,
                0.0
            ],
            "occlusionTexture": {
                "index": 1
            }
        }
    ],
    "textures": [
        {
            "sampler": 0,
            "source": 0
        },
        {
            "sampler": 0,
            "source": 1
        }
    ],
    "images": [
        {
            "uri": "../Textures/ArchMods_Base_Color.jpg"
        },
        {
            "uri": "../Textures/ArchMods_Occlusion.jpg"
        }
    ],
    "samplers": [
        {
            "magFilter": 9729,
            "minFilter": 9987,
            "wrapS": 10497,
            "wrapT": 10497
        }
    ],
    "bufferViews": [
        {
            "buffer": 0,
            "byteOffset": 1632,
            "byteLength": 192,
            "target": 34963
        },
        {
            "buffer": 0,
            "byteOffset": 544,
            "byteLength": 816,
            "byteStride": 12,
            "target": 34962
        },
        {
            "buffer": 0,
            "byteOffset": 0,
            "byteLength": 544,
            "byteStride": 16,
            "target": 34962
        },
        {
            "buffer": 0,
            "byteOffset": 1360,
            "byteLength": 272,
            "byteStride": 8,
            "target": 34962
        }
    ],
    "buffers": [
        {
            "byteLength": 1824,
            "uri": "Pillar0_5x4_5Rnd0.bin"
        }
    ]
}
