{"asset":{"version":"2.0","generator":"THREE.GLTFExporter"},"scenes":[{"nodes":[3,7,8],"name":"Scene"}],"scene":0,"nodes":[{"name":"Door1x2_25SimpShape","mesh":0},{"name":"Door1x2_25Simp","children":[0]},{"extras":{"_gltfRoot":true,"_dontShowInHierarchy":true,"_dontExport":true},"children":[1]},{"translation":[-1.2539510214065832,0,0],"name":"Door1x2_25Simp","extras":{"MOZ_gltf_ref":{"uri":"/api/files/ArchitectureKit/Door1x2_25Simp.gltf"}},"children":[2]},{"name":"Door1x2_25WindShape","mesh":1},{"name":"Door1x2_25Wind","children":[4]},{"extras":{"_gltfRoot":true,"_dontShowInHierarchy":true,"_dontExport":true},"children":[5]},{"name":"Door1x2_25Wind","extras":{"MOZ_gltf_ref":{"uri":"/api/files/ArchitectureKit/Door1x2_25Wind.gltf"}},"children":[6]},{"translation":[0,0.20903259074842495,1.4767046548607465],"name":"New_Node","extras":{"MOZ_components":[{"name":"directional-light","props":{"color":"white","intensity":1},"_object":{"metadata":{"version":4.5,"type":"Object","generator":"Object3D.toJSON"},"object":{"uuid":"07E0937F-F426-47BC-9C79-6D09DA07303D","type":"DirectionalLight","userData":{"_dontShowInHierarchy":true},"layers":1,"matrix":[1,0,0,0,0,1,0,0,0,0,1,0,0,1,0,1],"color":16777215,"intensity":1,"shadow":{"camera":{"uuid":"DE7CB2DA-B4FF-4303-A68B-4E8D938BBAA1","type":"OrthographicCamera","layers":1,"zoom":1,"left":-5,"right":5,"top":5,"bottom":-5,"near":0.5,"far":500}}}}}]}}],"bufferViews":[{"buffer":0,"byteOffset":0,"byteLength":288,"target":34962,"byteStride":12},{"buffer":0,"byteOffset":288,"byteLength":288,"target":34962,"byteStride":12},{"buffer":0,"byteOffset":576,"byteLength":192,"target":34962,"byteStride":8},{"buffer":0,"byteOffset":768,"byteLength":72,"target":34963},{"buffer":0,"byteOffset":840,"byteLength":576,"target":34962,"byteStride":12},{"buffer":0,"byteOffset":1416,"byteLength":576,"target":34962,"byteStride":12},{"buffer":0,"byteOffset":1992,"byteLength":384,"target":34962,"byteStride":8},{"buffer":0,"byteOffset":2376,"byteLength":192,"target":34963}],"buffers":[{"byteLength":2568,"uri":"scene.bin"}],"accessors":[{"bufferView":0,"componentType":5126,"count":24,"max":[1,1,1],"min":[-1,-1,-1],"type":"VEC3"},{"bufferView":1,"componentType":5126,"count":24,"max":[0.4699999988079071,2.2199997901916504,0.1382165551185608],"min":[-0.4699999988079071,0,0.08315185457468033],"type":"VEC3"},{"bufferView":2,"componentType":5126,"count":24,"max":[0.5301299691200256,0.8631702661514282],"min":[0.38179948925971985,0.5827718377113342],"type":"VEC2"},{"bufferView":3,"componentType":5123,"count":36,"max":[23],"min":[0],"type":"SCALAR"},{"bufferView":4,"componentType":5126,"count":48,"max":[1,1,1],"min":[-1,-1,-1],"type":"VEC3"},{"bufferView":5,"componentType":5126,"count":48,"max":[0.4699999988079071,2.2199997901916504,0.13821685314178467],"min":[-0.4699999988079071,0,0.08315185457468033],"type":"VEC3"},{"bufferView":6,"componentType":5126,"count":48,"max":[0.5301302075386047,0.8631702661514282],"min":[0.38179948925971985,0.5827717185020447],"type":"VEC2"},{"bufferView":7,"componentType":5123,"count":96,"max":[47],"min":[0],"type":"SCALAR"}],"materials":[{"pbrMetallicRoughness":{"metallicFactor":1,"roughnessFactor":1}},{"pbrMetallicRoughness":{"metallicFactor":1,"roughnessFactor":1}}],"meshes":[{"primitives":[{"mode":4,"attributes":{"NORMAL":0,"POSITION":1,"TEXCOORD_0":2},"indices":3,"material":0}]},{"primitives":[{"mode":4,"attributes":{"NORMAL":4,"POSITION":5,"TEXCOORD_0":6},"indices":7,"material":1}]}]}
