<svg width="128" height="128" viewBox="0 0 128 128" fill="none" xmlns="http://www.w3.org/2000/svg">
<path fill-rule="evenodd" clip-rule="evenodd" d="M66 23H90C91.6569 23 93 24.3431 93 26V54H71V32C71 30.3431 69.6569 29 68 29H66V23ZM93 57H71V60C71 61.6569 69.6569 63 68 63H60C58.3431 63 57 61.6569 57 60V57H35V96C35 100.971 39.0294 105 44 105H84C88.9706 105 93 100.971 93 96V57ZM32 57V26C32 22.6863 34.6863 20 38 20H63H64H65H90C93.3137 20 96 22.6863 96 26V57V96C96 102.627 90.6274 108 84 108H44C37.3726 108 32 102.627 32 96V57ZM64 32H63H60V57V60H68V57V32H65H64Z" fill="white"/>
</svg>
