<svg width="128" height="128" viewBox="0 0 128 128" fill="none" xmlns="http://www.w3.org/2000/svg">
<path fill-rule="evenodd" clip-rule="evenodd" d="M90 23H66V29H68C69.6569 29 71 30.3431 71 32V54H93V26C93 24.3431 91.6569 23 90 23ZM57 57V60C57 61.6569 58.3431 63 60 63H68C69.6569 63 71 61.6569 71 60V57H93V96C93 100.971 88.9706 105 84 105H44C39.0294 105 35 100.971 35 96V57H57ZM57 54V32C57 30.3431 58.3431 29 60 29H62V23H38C36.3431 23 35 24.3431 35 26V54H57ZM90 20H65H63H38C34.6863 20 32 22.6863 32 26V57V96C32 102.627 37.3726 108 44 108H84C90.6274 108 96 102.627 96 96V57V26C96 22.6863 93.3137 20 90 20Z" fill="white"/>
</svg>
