<svg width="128" height="128" viewBox="0 0 128 128" fill="none" xmlns="http://www.w3.org/2000/svg">
<path fill-rule="evenodd" clip-rule="evenodd" d="M51 33H77V59H51V33ZM48 33C48 31.3431 49.3431 30 51 30H77C78.6569 30 80 31.3431 80 33V59C80 60.6569 78.6569 62 77 62H51C49.3431 62 48 60.6569 48 59V33ZM14 70H40V96H14V70ZM11 70C11 68.3431 12.3431 67 14 67H40C41.6569 67 43 68.3431 43 70V96C43 97.6569 41.6569 99 40 99H14C12.3431 99 11 97.6569 11 96V70ZM77 70H51V96H77V70ZM51 67C49.3431 67 48 68.3431 48 70V96C48 97.6569 49.3431 99 51 99H77C78.6569 99 80 97.6569 80 96V70C80 68.3431 78.6569 67 77 67H51ZM88 70H114V96H88V70ZM85 70C85 68.3431 86.3431 67 88 67H114C115.657 67 117 68.3431 117 70V96C117 97.6569 115.657 99 114 99H88C86.3431 99 85 97.6569 85 96V70ZM70.5339 40.969L67.4049 51H66.1869L63.6459 43.349C63.6226 43.2743 63.5992 43.195 63.5759 43.111C63.5572 43.027 63.5362 42.9383 63.5129 42.845C63.4896 42.9383 63.4662 43.027 63.4429 43.111C63.4196 43.195 63.3962 43.2743 63.3729 43.349L60.8179 51H59.5999L56.4709 40.969H57.5979C57.7192 40.969 57.8196 40.9993 57.8989 41.06C57.9829 41.1207 58.0366 41.1977 58.0599 41.291L60.1319 48.263C60.1646 48.389 60.1949 48.5243 60.2229 48.669C60.2556 48.8137 60.2859 48.9677 60.3139 49.131C60.3466 48.9677 60.3792 48.8137 60.4119 48.669C60.4492 48.5197 60.4889 48.3843 60.5309 48.263L62.8899 41.291C62.9179 41.2117 62.9716 41.1393 63.0509 41.074C63.1349 41.004 63.2352 40.969 63.3519 40.969H63.7439C63.8652 40.969 63.9632 40.9993 64.0379 41.06C64.1126 41.1207 64.1686 41.1977 64.2059 41.291L66.5579 48.263C66.5999 48.3843 66.6372 48.515 66.6699 48.655C66.7072 48.795 66.7422 48.942 66.7749 49.096C66.7982 48.942 66.8239 48.795 66.8519 48.655C66.8799 48.515 66.9102 48.3843 66.9429 48.263L69.0219 41.291C69.0452 41.207 69.0966 41.1323 69.1759 41.067C69.2599 41.0017 69.3602 40.969 69.4769 40.969H70.5339ZM66.4712 79.698C66.5225 79.6607 66.5692 79.607 66.6112 79.537L66.9402 78.893C66.5902 78.557 66.1842 78.3003 65.7222 78.123C65.2649 77.9457 64.7562 77.857 64.1962 77.857C63.6969 77.857 63.2535 77.934 62.8662 78.088C62.4835 78.242 62.1592 78.4473 61.8932 78.704C61.6319 78.9607 61.4312 79.2547 61.2912 79.586C61.1559 79.9173 61.0882 80.2603 61.0882 80.615C61.0882 81.0583 61.1559 81.4317 61.2912 81.735C61.4312 82.0337 61.6132 82.2833 61.8372 82.484C62.0612 82.6847 62.3179 82.848 62.6072 82.974C62.8965 83.1 63.1905 83.212 63.4892 83.31C63.7879 83.4033 64.0819 83.4967 64.3712 83.59C64.6605 83.6787 64.9172 83.7883 65.1412 83.919C65.3652 84.0497 65.5449 84.213 65.6802 84.409C65.8202 84.6003 65.8902 84.8477 65.8902 85.151C65.8902 85.4263 65.8435 85.676 65.7502 85.9C65.6569 86.124 65.5215 86.3177 65.3442 86.481C65.1715 86.6397 64.9592 86.7633 64.7072 86.852C64.4552 86.9407 64.1682 86.985 63.8462 86.985C63.5895 86.985 63.3585 86.9617 63.1532 86.915C62.9479 86.8637 62.7635 86.8007 62.6002 86.726C62.4415 86.6513 62.2992 86.5697 62.1732 86.481C62.0472 86.3923 61.9352 86.3107 61.8372 86.236C61.7392 86.1613 61.6505 86.1007 61.5712 86.054C61.4965 86.0027 61.4289 85.977 61.3682 85.977C61.3029 85.977 61.2422 85.9957 61.1862 86.033C61.1349 86.0657 61.0905 86.1077 61.0532 86.159L60.6612 86.803C61.0392 87.2043 61.4942 87.524 62.0262 87.762C62.5582 87.9953 63.1509 88.112 63.8042 88.112C64.3362 88.112 64.8099 88.0303 65.2252 87.867C65.6452 87.7037 65.9975 87.4797 66.2822 87.195C66.5715 86.9103 66.7909 86.5767 66.9402 86.194C67.0895 85.8067 67.1642 85.3937 67.1642 84.955C67.1642 84.5397 67.0942 84.1897 66.9542 83.905C66.8189 83.6203 66.6369 83.38 66.4082 83.184C66.1842 82.988 65.9275 82.827 65.6382 82.701C65.3535 82.5703 65.0595 82.4537 64.7562 82.351C64.4575 82.2483 64.1635 82.1503 63.8742 82.057C63.5895 81.959 63.3329 81.8447 63.1042 81.714C62.8802 81.5833 62.6982 81.427 62.5582 81.245C62.4229 81.0583 62.3552 80.825 62.3552 80.545C62.3552 80.3257 62.3949 80.1227 62.4742 79.936C62.5535 79.7447 62.6702 79.579 62.8242 79.439C62.9829 79.299 63.1765 79.1893 63.4052 79.11C63.6385 79.026 63.9069 78.984 64.2102 78.984C64.5322 78.984 64.8052 79.0237 65.0292 79.103C65.2579 79.1823 65.4515 79.271 65.6102 79.369C65.7735 79.4623 65.9089 79.5487 66.0162 79.628C66.1235 79.7073 66.2169 79.747 66.2962 79.747C66.3662 79.747 66.4245 79.7307 66.4712 79.698ZM105.15 82.988C105.15 83.7393 105.031 84.423 104.793 85.039C104.555 85.655 104.219 86.1823 103.785 86.621C103.351 87.0597 102.828 87.4003 102.217 87.643C101.61 87.881 100.938 88 100.201 88H96.4558V77.969H100.201C100.938 77.969 101.61 78.0903 102.217 78.333C102.828 78.571 103.351 78.9117 103.785 79.355C104.219 79.7937 104.555 80.321 104.793 80.937C105.031 81.553 105.15 82.2367 105.15 82.988ZM103.757 82.988C103.757 82.372 103.673 81.8213 103.505 81.336C103.337 80.8507 103.099 80.44 102.791 80.104C102.483 79.768 102.109 79.5113 101.671 79.334C101.232 79.1567 100.742 79.068 100.201 79.068H97.8138V86.901H100.201C100.742 86.901 101.232 86.8123 101.671 86.635C102.109 86.4577 102.483 86.2033 102.791 85.872C103.099 85.536 103.337 85.1253 103.505 84.64C103.673 84.1547 103.757 83.604 103.757 82.988ZM27.2957 80.195L28.8707 84.276H25.1257L26.7007 80.202C26.8034 79.95 26.9037 79.635 27.0017 79.257C27.0484 79.439 27.0974 79.6117 27.1487 79.775C27.2 79.9337 27.249 80.0737 27.2957 80.195ZM30.6487 88H31.6987L27.6877 77.969H26.3157L22.3047 88H23.3547C23.4714 88 23.5694 87.9673 23.6487 87.902C23.728 87.8367 23.7817 87.762 23.8097 87.678L24.7477 85.256H29.2487L30.1867 87.678C30.224 87.7713 30.28 87.8483 30.3547 87.909C30.4294 87.9697 30.5274 88 30.6487 88Z" fill="white"/>
</svg>
