{"asset":{"version":"2.0","generator":"THREE.GLTFExporter"},"scenes":[{"nodes":[1],"name":"Scene","extras":{"components":{"ambient-light":{"color":"white","intensity":1},"directional-light":{"color":"white","intensity":1,"castShadow":true,"elevation":63,"azimuth":245}}}}],"scene":0,"nodes":[{"name":"Wall4x3SimpShape","mesh":0},{"name":"Wall4x3Simp","children":[0]}],"bufferViews":[{"buffer":0,"byteOffset":0,"byteLength":48,"target":34962,"byteStride":12},{"buffer":0,"byteOffset":48,"byteLength":48,"target":34962,"byteStride":12},{"buffer":0,"byteOffset":96,"byteLength":32,"target":34962,"byteStride":8},{"buffer":0,"byteOffset":128,"byteLength":32,"target":34962,"byteStride":8},{"buffer":0,"byteOffset":160,"byteLength":12,"target":34963}],"buffers":[{"byteLength":172,"uri":"1deb414d08.bin"}],"accessors":[{"bufferView":0,"componentType":5126,"count":4,"max":[0,0,1],"min":[0,0,1],"type":"VEC3"},{"bufferView":1,"componentType":5126,"count":4,"max":[2,2.875,-1.8750005960464478],"min":[-2,-0.125,-1.8750005960464478],"type":"VEC3"},{"bufferView":2,"componentType":5126,"count":4,"max":[0.3774773180484772,0.9983994364738464],"min":[0.002477327361702919,0.7171494364738464],"type":"VEC2"},{"bufferView":3,"componentType":5126,"count":4,"max":[0.3774773180484772,0.9983994364738464],"min":[0.002477327361702919,0.7171494364738464],"type":"VEC2"},{"bufferView":4,"componentType":5123,"count":6,"max":[3],"min":[0],"type":"SCALAR"}],"materials":[{"pbrMetallicRoughness":{"metallicFactor":0,"roughnessFactor":1,"baseColorTexture":{"index":0}},"occlusionTexture":{"index":1},"extensions":{"MOZ_alt_materials":{"KHR_materials_unlit":1}}},{"pbrMetallicRoughness":{"baseColorTexture":{"index":2},"roughnessFactor":0.9,"metallicFactor":0},"extensions":{"KHR_materials_unlit":{}}}],"textures":[{"sampler":0,"source":0},{"sampler":1,"source":1},{"source":2}],"samplers":[{"magFilter":9729,"minFilter":9987},{"magFilter":9729,"minFilter":9987}],"images":[{"mimeType":"image/jpeg","uri":"2cd4e0c8c5.jpg"},{"mimeType":"image/jpeg","uri":"59e349acd9.jpg"},{"uri":"f94377c0fd.jpg"}],"meshes":[{"primitives":[{"mode":4,"attributes":{"NORMAL":0,"POSITION":1,"TEXCOORD_0":2,"TEXCOORD_1":3},"indices":4,"material":0}]}],"extensionsUsed":["MOZ_alt_materials","KHR_materials_unlit"]}
