{
    "asset": {
        "generator": "Maya2glTF V0.9.7-BETA 66f7270",
        "version": "2.0"
    },
    "scenes": [
        {
            "nodes": [
                0
            ]
        }
    ],
    "scene": 0,
    "nodes": [
        {
            "children": [
                1
            ],
            "translation": [
                550.0,
                0.0,
                0.0
            ],
            "name": "StairsFlt2x2x1_5Simp"
        },
        {
            "mesh": 0,
            "translation": [
                -3350.0,
                0.0,
                450.0
            ],
            "name": "StairsFlt2x2x1_5SimpShape"
        }
    ],
    "meshes": [
        {
            "primitives": [
                {
                    "attributes": {
                        "NORMAL": 1,
                        "POSITION": 2,
                        "TANGENT": 3,
                        "TEXCOORD_0": 4
                    },
                    "indices": 0,
                    "mode": 4,
                    "material": 0
                }
            ],
            "name": "StairsFlt2x2x1_5SimpShape"
        }
    ],
    "accessors": [
        {
            "bufferView": 0,
            "byteOffset": 0,
            "componentType": 5123,
            "count": 216,
            "max": [
                143
            ],
            "min": [
                0
            ],
            "type": "SCALAR"
        },
        {
            "bufferView": 1,
            "byteOffset": 0,
            "componentType": 5126,
            "count": 144,
            "max": [
                1.0,
                1.0,
                1.0
            ],
            "min": [
                -1.0,
                -1.0,
                -1.0
            ],
            "type": "VEC3"
        },
        {
            "bufferView": 1,
            "byteOffset": 1728,
            "componentType": 5126,
            "count": 144,
            "max": [
                100.00048828125,
                128.571533203125,
                300.0
            ],
            "min": [
                -100.000732421875,
                -4.440892098500626e-14,
                100.0001220703125
            ],
            "type": "VEC3"
        },
        {
            "bufferView": 2,
            "byteOffset": 0,
            "componentType": 5126,
            "count": 144,
            "max": [
                1.0,
                0.000009536719517200254,
                1.0,
                1.0
            ],
            "min": [
                -1.6689485904386459e-10,
                -0.000009536807738186326,
                -4.768369024077401e-7,
                -1.0
            ],
            "type": "VEC4"
        },
        {
            "bufferView": 3,
            "byteOffset": 0,
            "componentType": 5126,
            "count": 144,
            "max": [
                0.9920772314071656,
                0.9866814613342284
            ],
            "min": [
                0.616274893283844,
                0.8348954319953919
            ],
            "type": "VEC2"
        }
    ],
    "materials": [
        {
            "pbrMetallicRoughness": {}
        }
    ],
    "bufferViews": [
        {
            "buffer": 0,
            "byteOffset": 6912,
            "byteLength": 432,
            "target": 34963
        },
        {
            "buffer": 0,
            "byteOffset": 2304,
            "byteLength": 3456,
            "byteStride": 12,
            "target": 34962
        },
        {
            "buffer": 0,
            "byteOffset": 0,
            "byteLength": 2304,
            "byteStride": 16,
            "target": 34962
        },
        {
            "buffer": 0,
            "byteOffset": 5760,
            "byteLength": 1152,
            "byteStride": 8,
            "target": 34962
        }
    ],
    "buffers": [
        {
            "byteLength": 7344,
            "uri": "StairsFlt2x2x1_5Simp0.bin"
        }
    ]
}
