{
    "asset": {
        "generator": "Maya2glTF V0.9.7-BETA 66f7270",
        "version": "2.0"
    },
    "scenes": [
        {
            "nodes": [
                0
            ]
        }
    ],
    "scene": 0,
    "nodes": [
        {
            "children": [
                1
            ],
            "translation": [
                -700.0,
                0.0,
                150.0
            ],
            "name": "TrimMid1_5Vert"
        },
        {
            "mesh": 0,
            "translation": [
                3750.0,
                0.0,
                -250.0
            ],
            "name": "TrimMid1_5VertShape"
        }
    ],
    "meshes": [
        {
            "primitives": [
                {
                    "attributes": {
                        "NORMAL": 1,
                        "POSITION": 2,
                        "TANGENT": 3,
                        "TEXCOORD_0": 4
                    },
                    "indices": 0,
                    "mode": 4,
                    "material": 0
                }
            ],
            "name": "TrimMid1_5VertShape"
        }
    ],
    "accessors": [
        {
            "bufferView": 0,
            "byteOffset": 0,
            "componentType": 5123,
            "count": 18,
            "max": [
                11
            ],
            "min": [
                0
            ],
            "type": "SCALAR"
        },
        {
            "bufferView": 1,
            "byteOffset": 0,
            "componentType": 5126,
            "count": 12,
            "max": [
                1.0,
                0.000002034483941315557,
                1.0
            ],
            "min": [
                -1.0,
                -0.000002800257789203897,
                -0.00005250483445706777
            ],
            "type": "VEC3"
        },
        {
            "bufferView": 1,
            "byteOffset": 144,
            "componentType": 5126,
            "count": 12,
            "max": [
                18.75048828125,
                137.5,
                14.050033569335938
            ],
            "min": [
                -18.75,
                -12.5,
                9.399826049804688
            ],
            "type": "VEC3"
        },
        {
            "bufferView": 2,
            "byteOffset": 0,
            "componentType": 5126,
            "count": 12,
            "max": [
                0.000004950623406330124,
                1.0,
                0.0001039805356413126,
                1.0
            ],
            "min": [
                -2.3527793047151137e-8,
                0.9999996423721314,
                -0.0008680439786985517,
                1.0
            ],
            "type": "VEC4"
        },
        {
            "bufferView": 3,
            "byteOffset": 0,
            "componentType": 5126,
            "count": 12,
            "max": [
                0.7120091915130615,
                0.5385088324546814
            ],
            "min": [
                0.5713791847229004,
                0.4946189522743225
            ],
            "type": "VEC2"
        }
    ],
    "materials": [
        {
            "pbrMetallicRoughness": {}
        }
    ],
    "bufferViews": [
        {
            "buffer": 0,
            "byteOffset": 576,
            "byteLength": 36,
            "target": 34963
        },
        {
            "buffer": 0,
            "byteOffset": 192,
            "byteLength": 288,
            "byteStride": 12,
            "target": 34962
        },
        {
            "buffer": 0,
            "byteOffset": 0,
            "byteLength": 192,
            "byteStride": 16,
            "target": 34962
        },
        {
            "buffer": 0,
            "byteOffset": 480,
            "byteLength": 96,
            "byteStride": 8,
            "target": 34962
        }
    ],
    "buffers": [
        {
            "byteLength": 612,
            "uri": "TrimMid1_5Vert0.bin"
        }
    ]
}
