{
    "asset": {
        "generator": "Maya2glTF V0.9.7-BETA 66f7270",
        "version": "2.0"
    },
    "scenes": [
        {
            "nodes": [
                0
            ]
        }
    ],
    "scene": 0,
    "nodes": [
        {
            "children": [
                1
            ],
            "translation": [
                -400.0,
                0.0,
                150.0
            ],
            "name": "TrimMid4_5Vert"
        },
        {
            "mesh": 0,
            "translation": [
                3750.0,
                0.0,
                -250.0
            ],
            "name": "TrimMid4_5VertShape"
        }
    ],
    "meshes": [
        {
            "primitives": [
                {
                    "attributes": {
                        "NORMAL": 1,
                        "POSITION": 2,
                        "TANGENT": 3,
                        "TEXCOORD_0": 4
                    },
                    "indices": 0,
                    "mode": 4,
                    "material": 0
                }
            ],
            "name": "TrimMid4_5VertShape"
        }
    ],
    "accessors": [
        {
            "bufferView": 0,
            "byteOffset": 0,
            "componentType": 5123,
            "count": 18,
            "max": [
                11
            ],
            "min": [
                0
            ],
            "type": "SCALAR"
        },
        {
            "bufferView": 1,
            "byteOffset": 0,
            "componentType": 5126,
            "count": 12,
            "max": [
                1.0,
                6.781613137718523e-7,
                1.0
            ],
            "min": [
                -1.0,
                -9.334245305581136e-7,
                -0.00005250512913335115
            ],
            "type": "VEC3"
        },
        {
            "bufferView": 1,
            "byteOffset": 144,
            "componentType": 5126,
            "count": 12,
            "max": [
                18.75048828125,
                437.5,
                14.050033569335938
            ],
            "min": [
                -18.75,
                -12.5,
                9.399826049804688
            ],
            "type": "VEC3"
        },
        {
            "bufferView": 2,
            "byteOffset": 0,
            "componentType": 5126,
            "count": 12,
            "max": [
                0.0000024979156023619,
                1.0,
                7.347513815147977e-7,
                1.0
            ],
            "min": [
                7.386462108627256e-9,
                1.0,
                -0.000001667132210059208,
                1.0
            ],
            "type": "VEC4"
        },
        {
            "bufferView": 3,
            "byteOffset": 0,
            "componentType": 5126,
            "count": 12,
            "max": [
                0.9932600259780884,
                0.5384941101074219
            ],
            "min": [
                0.5713791847229004,
                0.4946185946464539
            ],
            "type": "VEC2"
        }
    ],
    "materials": [
        {
            "pbrMetallicRoughness": {}
        }
    ],
    "bufferViews": [
        {
            "buffer": 0,
            "byteOffset": 576,
            "byteLength": 36,
            "target": 34963
        },
        {
            "buffer": 0,
            "byteOffset": 192,
            "byteLength": 288,
            "byteStride": 12,
            "target": 34962
        },
        {
            "buffer": 0,
            "byteOffset": 0,
            "byteLength": 192,
            "byteStride": 16,
            "target": 34962
        },
        {
            "buffer": 0,
            "byteOffset": 480,
            "byteLength": 96,
            "byteStride": 8,
            "target": 34962
        }
    ],
    "buffers": [
        {
            "byteLength": 612,
            "uri": "TrimMid4_5Vert0.bin"
        }
    ]
}
