{
    "asset": {
        "generator": "Maya2glTF V0.9.7-BETA 66f7270",
        "version": "2.0"
    },
    "scenes": [
        {
            "nodes": [
                0
            ]
        }
    ],
    "scene": 0,
    "nodes": [
        {
            "children": [
                1
            ],
            "translation": [
                -850.0,
                0.0,
                0.0
            ],
            "name": "TrimCapFull"
        },
        {
            "mesh": 0,
            "translation": [
                3750.0,
                0.0,
                -250.0
            ],
            "name": "TrimCapFullShape"
        }
    ],
    "meshes": [
        {
            "primitives": [
                {
                    "attributes": {
                        "NORMAL": 1,
                        "POSITION": 2,
                        "TANGENT": 3,
                        "TEXCOORD_0": 4
                    },
                    "indices": 0,
                    "mode": 4,
                    "material": 0
                }
            ],
            "name": "TrimCapFullShape"
        }
    ],
    "accessors": [
        {
            "bufferView": 0,
            "byteOffset": 0,
            "componentType": 5123,
            "count": 36,
            "max": [
                23
            ],
            "min": [
                0
            ],
            "type": "SCALAR"
        },
        {
            "bufferView": 1,
            "byteOffset": 0,
            "componentType": 5126,
            "count": 24,
            "max": [
                1.0,
                1.0,
                1.0
            ],
            "min": [
                -1.0,
                -1.0,
                -1.0
            ],
            "type": "VEC3"
        },
        {
            "bufferView": 1,
            "byteOffset": 288,
            "componentType": 5126,
            "count": 24,
            "max": [
                21.85009765625,
                1.6000059843063357,
                21.850112915039064
            ],
            "min": [
                -21.85009765625,
                -26.59999656677246,
                -21.850250244140626
            ],
            "type": "VEC3"
        },
        {
            "bufferView": 2,
            "byteOffset": 0,
            "componentType": 5126,
            "count": 24,
            "max": [
                1.0,
                0.0,
                1.0,
                1.0
            ],
            "min": [
                -0.0000352361130353529,
                -1.0,
                -0.000003774723609240027,
                1.0
            ],
            "type": "VEC4"
        },
        {
            "bufferView": 3,
            "byteOffset": 0,
            "componentType": 5126,
            "count": 24,
            "max": [
                0.6070380210876465,
                0.7218385338783264
            ],
            "min": [
                0.538310706615448,
                0.6019780039787293
            ],
            "type": "VEC2"
        }
    ],
    "materials": [
        {
            "pbrMetallicRoughness": {}
        }
    ],
    "bufferViews": [
        {
            "buffer": 0,
            "byteOffset": 1152,
            "byteLength": 72,
            "target": 34963
        },
        {
            "buffer": 0,
            "byteOffset": 384,
            "byteLength": 576,
            "byteStride": 12,
            "target": 34962
        },
        {
            "buffer": 0,
            "byteOffset": 0,
            "byteLength": 384,
            "byteStride": 16,
            "target": 34962
        },
        {
            "buffer": 0,
            "byteOffset": 960,
            "byteLength": 192,
            "byteStride": 8,
            "target": 34962
        }
    ],
    "buffers": [
        {
            "byteLength": 1224,
            "uri": "TrimCapFull0.bin"
        }
    ]
}
