{
    "asset": {
        "generator": "Maya2glTF V0.9.7-BETA 66f7270",
        "version": "2.0"
    },
    "scenes": [
        {
            "nodes": [
                0
            ]
        }
    ],
    "scene": 0,
    "nodes": [
        {
            "children": [
                1
            ],
            "translation": [
                -550.0,
                0.0,
                0.0
            ],
            "name": "TrimFull3Vert"
        },
        {
            "mesh": 0,
            "translation": [
                3750.0,
                0.0,
                -250.0
            ],
            "name": "TrimFull3VertShape"
        }
    ],
    "meshes": [
        {
            "primitives": [
                {
                    "attributes": {
                        "NORMAL": 1,
                        "POSITION": 2,
                        "TANGENT": 3,
                        "TEXCOORD_0": 4
                    },
                    "indices": 0,
                    "mode": 4,
                    "material": 0
                }
            ],
            "name": "TrimFull3VertShape"
        }
    ],
    "accessors": [
        {
            "bufferView": 0,
            "byteOffset": 0,
            "componentType": 5123,
            "count": 24,
            "max": [
                15
            ],
            "min": [
                0
            ],
            "type": "SCALAR"
        },
        {
            "bufferView": 1,
            "byteOffset": 0,
            "componentType": 5126,
            "count": 16,
            "max": [
                1.0,
                0.0000010172420843446162,
                1.0
            ],
            "min": [
                -1.0,
                -0.0000013888985677112942,
                -1.0
            ],
            "type": "VEC3"
        },
        {
            "bufferView": 1,
            "byteOffset": 192,
            "componentType": 5126,
            "count": 16,
            "max": [
                18.75048828125,
                287.5,
                18.750091552734376
            ],
            "min": [
                -18.75,
                -12.5,
                -18.75
            ],
            "type": "VEC3"
        },
        {
            "bufferView": 2,
            "byteOffset": 0,
            "componentType": 5126,
            "count": 16,
            "max": [
                0.000001415675455973542,
                1.0,
                0.000027991362003376709,
                1.0
            ],
            "min": [
                -0.0000012715636330540293,
                1.0,
                -0.00008435003110207617,
                1.0
            ],
            "type": "VEC4"
        },
        {
            "bufferView": 3,
            "byteOffset": 0,
            "componentType": 5126,
            "count": 16,
            "max": [
                0.8527557253837586,
                0.5341582298278809
            ],
            "min": [
                0.5713843107223511,
                0.4638220071792603
            ],
            "type": "VEC2"
        }
    ],
    "materials": [
        {
            "pbrMetallicRoughness": {}
        }
    ],
    "bufferViews": [
        {
            "buffer": 0,
            "byteOffset": 768,
            "byteLength": 48,
            "target": 34963
        },
        {
            "buffer": 0,
            "byteOffset": 256,
            "byteLength": 384,
            "byteStride": 12,
            "target": 34962
        },
        {
            "buffer": 0,
            "byteOffset": 0,
            "byteLength": 256,
            "byteStride": 16,
            "target": 34962
        },
        {
            "buffer": 0,
            "byteOffset": 640,
            "byteLength": 128,
            "byteStride": 8,
            "target": 34962
        }
    ],
    "buffers": [
        {
            "byteLength": 816,
            "uri": "TrimFull3Vert0.bin"
        }
    ]
}
