{
    "asset": {
        "generator": "Maya2glTF V0.9.7-BETA 66f7270",
        "version": "2.0"
    },
    "scenes": [
        {
            "nodes": [
                0
            ]
        }
    ],
    "scene": 0,
    "nodes": [
        {
            "children": [
                1
            ],
            "translation": [
                150.0,
                0.0,
                600.0
            ],
            "name": "WinInsertTrad3x0_75Horz"
        },
        {
            "mesh": 0,
            "name": "WinInsertTrad3x0_75HorzShape"
        }
    ],
    "meshes": [
        {
            "primitives": [
                {
                    "attributes": {
                        "NORMAL": 1,
                        "POSITION": 2,
                        "TANGENT": 3,
                        "TEXCOORD_0": 4
                    },
                    "indices": 0,
                    "mode": 4,
                    "material": 0
                }
            ],
            "name": "WinInsertTrad3x0_75HorzShape"
        }
    ],
    "accessors": [
        {
            "bufferView": 0,
            "byteOffset": 0,
            "componentType": 5123,
            "count": 192,
            "max": [
                103
            ],
            "min": [
                0
            ],
            "type": "SCALAR"
        },
        {
            "bufferView": 1,
            "byteOffset": 0,
            "componentType": 5126,
            "count": 104,
            "max": [
                1.0,
                1.0,
                1.0
            ],
            "min": [
                -1.0,
                -1.0,
                -1.0
            ],
            "type": "VEC3"
        },
        {
            "bufferView": 1,
            "byteOffset": 1248,
            "componentType": 5126,
            "count": 104,
            "max": [
                145.89990234375,
                108.39996337890624,
                1.5
            ],
            "min": [
                -145.89990234375,
                41.60000610351563,
                -1.5
            ],
            "type": "VEC3"
        },
        {
            "bufferView": 2,
            "byteOffset": 0,
            "componentType": 5126,
            "count": 104,
            "max": [
                1.0,
                9.293245274206606e-16,
                1.0,
                1.0
            ],
            "min": [
                -1.0,
                -1.0,
                -1.0,
                1.0
            ],
            "type": "VEC4"
        },
        {
            "bufferView": 3,
            "byteOffset": 0,
            "componentType": 5126,
            "count": 104,
            "max": [
                0.5016724467277527,
                0.8609166145324707
            ],
            "min": [
                0.4983276128768921,
                0.7028263807296753
            ],
            "type": "VEC2"
        }
    ],
    "materials": [
        {
            "pbrMetallicRoughness": {}
        }
    ],
    "bufferViews": [
        {
            "buffer": 0,
            "byteOffset": 4992,
            "byteLength": 384,
            "target": 34963
        },
        {
            "buffer": 0,
            "byteOffset": 1664,
            "byteLength": 2496,
            "byteStride": 12,
            "target": 34962
        },
        {
            "buffer": 0,
            "byteOffset": 0,
            "byteLength": 1664,
            "byteStride": 16,
            "target": 34962
        },
        {
            "buffer": 0,
            "byteOffset": 4160,
            "byteLength": 832,
            "byteStride": 8,
            "target": 34962
        }
    ],
    "buffers": [
        {
            "byteLength": 5376,
            "uri": "WinInsertTrad3x0_75Horz0.bin"
        }
    ]
}
