{
    "asset": {
        "generator": "Maya2glTF V0.9.7-BETA ab18f62",
        "version": "2.0"
    },
    "scenes": [
        {
            "nodes": [
                0
            ]
        }
    ],
    "scene": 0,
    "nodes": [
        {
            "children": [
                1
            ],
            "name": "StairsFlt2x2x1_5Open"
        },
        {
            "mesh": 0,
            "name": "StairsFlt2x2x1_5OpenShape"
        }
    ],
    "meshes": [
        {
            "primitives": [
                {
                    "attributes": {
                        "NORMAL": 1,
                        "POSITION": 2,
                        "TANGENT": 3,
                        "TEXCOORD_0": 4
                    },
                    "indices": 0,
                    "mode": 4,
                    "material": 0
                }
            ],
            "name": "StairsFlt2x2x1_5OpenShape"
        }
    ],
    "accessors": [
        {
            "bufferView": 0,
            "byteOffset": 0,
            "componentType": 5123,
            "count": 276,
            "max": [
                183
            ],
            "min": [
                0
            ],
            "type": "SCALAR"
        },
        {
            "bufferView": 1,
            "byteOffset": 0,
            "componentType": 5126,
            "count": 184,
            "max": [
                1.0,
                1.0,
                1.0
            ],
            "min": [
                -1.0,
                -1.0,
                -1.0
            ],
            "type": "VEC3"
        },
        {
            "bufferView": 1,
            "byteOffset": 2208,
            "componentType": 5126,
            "count": 184,
            "max": [
                1.0000048875808716,
                1.2857226133346558,
                3.0
            ],
            "min": [
                -1.0000048875808716,
                -0.10714813321828842,
                1.0
            ],
            "type": "VEC3"
        },
        {
            "bufferView": 2,
            "byteOffset": 0,
            "componentType": 5126,
            "count": 184,
            "max": [
                1.0,
                0.8411477208137512,
                1.0,
                1.0
            ],
            "min": [
                -1.0,
                -0.000012715652701444924,
                -1.0,
                -1.0
            ],
            "type": "VEC4"
        },
        {
            "bufferView": 3,
            "byteOffset": 0,
            "componentType": 5126,
            "count": 184,
            "max": [
                0.9920772910118104,
                0.9984000325202942
            ],
            "min": [
                0.5929528474807739,
                0.7654519081115723
            ],
            "type": "VEC2"
        }
    ],
    "materials": [
        {
            "pbrMetallicRoughness": {
                "baseColorFactor": [
                    1.0,
                    1.0,
                    1.0,
                    1.0
                ],
                "baseColorTexture": {
                    "index": 0
                },
                "metallicFactor": 0.0,
                "roughnessFactor": 1.0
            },
            "emissiveFactor": [
                0.0,
                0.0,
                0.0
            ],
            "occlusionTexture": {
                "index": 1
            }
        }
    ],
    "textures": [
        {
            "sampler": 0,
            "source": 0
        },
        {
            "sampler": 0,
            "source": 1
        }
    ],
    "images": [
        {
            "uri": "../Textures/ArchMods_Base_Color.jpg"
        },
        {
            "uri": "../Textures/ArchMods_Occlusion.jpg"
        }
    ],
    "samplers": [
        {
            "magFilter": 9729,
            "minFilter": 9987,
            "wrapS": 10497,
            "wrapT": 10497
        }
    ],
    "bufferViews": [
        {
            "buffer": 0,
            "byteOffset": 8832,
            "byteLength": 552,
            "target": 34963
        },
        {
            "buffer": 0,
            "byteOffset": 2944,
            "byteLength": 4416,
            "byteStride": 12,
            "target": 34962
        },
        {
            "buffer": 0,
            "byteOffset": 0,
            "byteLength": 2944,
            "byteStride": 16,
            "target": 34962
        },
        {
            "buffer": 0,
            "byteOffset": 7360,
            "byteLength": 1472,
            "byteStride": 8,
            "target": 34962
        }
    ],
    "buffers": [
        {
            "byteLength": 9384,
            "uri": "StairsFlt2x2x1_5Open0.bin"
        }
    ]
}
