{"asset":{"version":"2.0","generator":"GLTFExporter"},"scenes":[{"nodes":[0,1,2,5],"name":"Scene","extensions":{"MOZ_hubs_components":{"kit":{"authorName":"Robert Long","authorUrl":"https://robertlong.me","license":"CC-BY 2.0"}}}}],"scene":0,"nodes":[{"translation":[-5,0,0],"name":"Cone","mesh":0,"extensions":{"MOZ_hubs_components":{"kit-alt-materials":{"id":"Cone","name":"Cone","defaultMaterials":[{"id":"Cone","name":"Cone","material":0}],"altMaterials":[[1,0,2,3]]},"kit-piece":{"id":"Cone","name":"Cone","tags":["Parts"],"thumbnailUrl":"./thumbnails/Cone.jpeg"}}}},{"name":"Cube","mesh":1,"extensions":{"MOZ_hubs_components":{"kit-alt-materials":{"id":"Cube","name":"Cube","defaultMaterials":[{"id":"Cube","name":"Cube","material":2}],"altMaterials":[[1,0,2,3]]},"kit-piece":{"id":"Cube","name":"Cube","tags":["Parts"],"thumbnailUrl":"./thumbnails/Cube.jpeg"}}}},{"translation":[5,0,0],"name":"Sphere","mesh":2,"extensions":{"MOZ_hubs_components":{"kit-piece":{"id":"Sphere","name":"Sphere","tags":["Parts"],"thumbnailUrl":"./thumbnails/Sphere.jpeg"},"kit-alt-materials":{"id":"Sphere","name":"Sphere","defaultMaterials":[{"id":"Sphere","name":"Sphere","material":1}],"altMaterials":[[1,0,2,3]]}}}},{"translation":[0,2,0],"name":"Cone001","mesh":0,"extensions":{"MOZ_hubs_components":{"kit-alt-materials":{"id":"Cone.001","name":"Cone.001","defaultMaterials":[{"id":"Cone","name":"Cone","material":0}],"altMaterials":[[1,0,2,3]]}}}},{"name":"Cube001","mesh":1,"extensions":{"MOZ_hubs_components":{"kit-alt-materials":{"id":"Cube.001","name":"Cube.001","defaultMaterials":[{"id":"Cube","name":"Cube","material":2}],"altMaterials":[[1,0,2,3]]}}}},{"translation":[0,0,-5],"name":"Prefab","children":[3,4],"extensions":{"MOZ_hubs_components":{"kit-piece":{"id":"Prefab","name":"Prefab","tags":["Prefabs","Prefabs/Cones","Prefabs/Cubes"],"thumbnailUrl":"./thumbnails/Prefab.jpeg"}}}}],"bufferViews":[{"buffer":0,"byteOffset":0,"byteLength":1536,"target":34962,"byteStride":12},{"buffer":0,"byteOffset":1536,"byteLength":1536,"target":34962,"byteStride":12},{"buffer":0,"byteOffset":3072,"byteLength":1024,"target":34962,"byteStride":8},{"buffer":0,"byteOffset":4096,"byteLength":372,"target":34963},{"buffer":0,"byteOffset":4468,"byteLength":288,"target":34962,"byteStride":12},{"buffer":0,"byteOffset":4756,"byteLength":288,"target":34962,"byteStride":12},{"buffer":0,"byteOffset":5044,"byteLength":192,"target":34962,"byteStride":8},{"buffer":0,"byteOffset":5236,"byteLength":72,"target":34963},{"buffer":0,"byteOffset":5308,"byteLength":23808,"target":34962,"byteStride":12},{"buffer":0,"byteOffset":29116,"byteLength":23808,"target":34962,"byteStride":12},{"buffer":0,"byteOffset":52924,"byteLength":15872,"target":34962,"byteStride":8},{"buffer":0,"byteOffset":68796,"byteLength":5760,"target":34963}],"buffers":[{"byteLength":74556,"uri":"scene.bin"}],"accessors":[{"bufferView":0,"componentType":5126,"count":128,"max":[1,1,1],"min":[-1,-1,-1],"type":"VEC3","normalized":false},{"bufferView":1,"componentType":5126,"count":128,"max":[0.89097660779953,0.44548842310905457,0.8909766674041748],"min":[-0.8909767866134644,-1,-0.8909766674041748],"type":"VEC3","normalized":false},{"bufferView":2,"componentType":5126,"count":128,"max":[0.9900000095367432,0.9900000095367432],"min":[0.01000000536441803,0.5099999904632568],"type":"VEC2","normalized":false},{"bufferView":3,"componentType":5123,"count":186,"max":[127],"min":[0],"type":"SCALAR","normalized":false},{"bufferView":4,"componentType":5126,"count":24,"max":[1,1,1],"min":[-1,-1,-1],"type":"VEC3","normalized":false},{"bufferView":5,"componentType":5126,"count":24,"max":[1,1,1],"min":[-1,-1,-1],"type":"VEC3","normalized":false},{"bufferView":6,"componentType":5126,"count":24,"max":[0.875,1],"min":[0.125,0],"type":"VEC2","normalized":false},{"bufferView":7,"componentType":5123,"count":36,"max":[23],"min":[0],"type":"SCALAR","normalized":false},{"bufferView":8,"componentType":5126,"count":1984,"max":[1.000000238418579,1,1.0000003576278687],"min":[-0.9999998211860657,-1,-1],"type":"VEC3","normalized":false},{"bufferView":9,"componentType":5126,"count":1984,"max":[0.9904382228851318,0.99513840675354,0.9904382824897766],"min":[-0.9904382228851318,-0.99513840675354,-0.9904384016990662],"type":"VEC3","normalized":false},{"bufferView":10,"componentType":5126,"count":1984,"max":[1.000000238418579,1],"min":[0,0],"type":"VEC2","normalized":false},{"bufferView":11,"componentType":5123,"count":2880,"max":[1983],"min":[0],"type":"SCALAR","normalized":false}],"materials":[{"pbrMetallicRoughness":{"baseColorFactor":[0.8000000715255737,0,0,1],"metallicFactor":0,"roughnessFactor":0.5},"doubleSided":true,"name":"Red","extensions":{"MOZ_hubs_components":{"material-id":{"id":"Red","name":"Red"}}}},{"pbrMetallicRoughness":{"baseColorFactor":[0,0.8000000715255737,0.0007490438874810934,1],"metallicFactor":0,"roughnessFactor":0.5},"doubleSided":true,"name":"Green","extensions":{"MOZ_hubs_components":{"material-id":{"id":"Green","name":"Green"}}}},{"pbrMetallicRoughness":{"baseColorFactor":[0,0.001834358088672161,0.8000000715255737,1],"metallicFactor":0,"roughnessFactor":0.5},"doubleSided":true,"name":"Blue","extensions":{"MOZ_hubs_components":{"material-id":{"id":"Blue","name":"Blue"}}}},{"pbrMetallicRoughness":{"baseColorFactor":[0.7698425650596619,0.8000000715255737,0.0006515199784189463,1],"metallicFactor":0,"roughnessFactor":0.5},"doubleSided":true,"name":"Yellow","extensions":{"MOZ_hubs_components":{"material-id":{"id":"Yellow","name":"Yellow"}}}}],"meshes":[{"primitives":[{"mode":4,"attributes":{"POSITION":0,"NORMAL":1,"TEXCOORD_0":2},"indices":3,"material":0}]},{"primitives":[{"mode":4,"attributes":{"POSITION":4,"NORMAL":5,"TEXCOORD_0":6},"indices":7,"material":2}]},{"primitives":[{"mode":4,"attributes":{"POSITION":8,"NORMAL":9,"TEXCOORD_0":10},"indices":11,"material":1}]}],"extensionsUsed":["MOZ_hubs_components"]}