{"asset":{"version":"2.0","generator":"GLTFExporter"},"scenes":[{"nodes":[2,3,4],"name":"Scene","extensions":{"MOZ_hubs_components":{"kit":{"authorName":"Robert Long","authorUrl":"https://robertlong.me","license":"MIT"}}}}],"scene":0,"nodes":[{"name":"Cube_0","mesh":0},{"name":"Cube_1","mesh":1},{"name":"Cube","children":[0,1],"extensions":{"MOZ_hubs_components":{"kit-alt-materials":{"defaultMaterials":[0,1],"altMaterials":[[0,2],[1,3]]}}}},{"rotation":[0.16907575726509094,0.7558803558349609,-0.27217137813568115,0.570947527885437],"translation":[4.076245307922363,5.903861999511719,-1.0054539442062378],"name":"Light"},{"rotation":[0.483536034822464,0.33687159419059753,-0.20870360732078552,0.7804827094078064],"translation":[7.358891487121582,4.958309173583984,6.925790786743164],"name":"Camera"}],"bufferViews":[{"buffer":0,"byteOffset":0,"byteLength":432,"target":34962,"byteStride":12},{"buffer":0,"byteOffset":432,"byteLength":432,"target":34962,"byteStride":12},{"buffer":0,"byteOffset":864,"byteLength":288,"target":34962,"byteStride":8},{"buffer":0,"byteOffset":1152,"byteLength":288,"target":34962,"byteStride":8},{"buffer":0,"byteOffset":1440,"byteLength":108,"target":34963},{"buffer":0,"byteOffset":1548,"byteLength":48,"target":34962,"byteStride":12},{"buffer":0,"byteOffset":1596,"byteLength":48,"target":34962,"byteStride":12},{"buffer":0,"byteOffset":1644,"byteLength":32,"target":34962,"byteStride":8},{"buffer":0,"byteOffset":1676,"byteLength":32,"target":34962,"byteStride":8},{"buffer":0,"byteOffset":1708,"byteLength":12,"target":34963}],"buffers":[{"byteLength":1720,"uri":"scene.bin"}],"accessors":[{"bufferView":0,"componentType":5126,"count":36,"max":[1,1,1],"min":[-1,-1,-1],"type":"VEC3","normalized":false},{"bufferView":1,"componentType":5126,"count":36,"max":[1,1,1],"min":[-1,-1,-1],"type":"VEC3","normalized":false},{"bufferView":2,"componentType":5126,"count":36,"max":[0.875,1],"min":[0.125,0],"type":"VEC2","normalized":false},{"bufferView":3,"componentType":5126,"count":36,"max":[0.875,1],"min":[0.125,0],"type":"VEC2","normalized":false},{"bufferView":4,"componentType":5123,"count":54,"max":[35],"min":[0],"type":"SCALAR","normalized":false},{"bufferView":5,"componentType":5126,"count":4,"max":[1,0.6854934692382812,0.6854934692382812],"min":[1,-0.6854934692382812,-0.6854934692382812],"type":"VEC3","normalized":false},{"bufferView":6,"componentType":5126,"count":4,"max":[1,0,0],"min":[1,0,0],"type":"VEC3","normalized":false},{"bufferView":7,"componentType":5126,"count":4,"max":[0.9998999834060669,0.9999000430107117],"min":[0.00009998001041822135,0.00010001659393310547],"type":"VEC2","normalized":false},{"bufferView":8,"componentType":5126,"count":4,"max":[0.9998999834060669,0.9999000430107117],"min":[0.00009998001041822135,0.00010001659393310547],"type":"VEC2","normalized":false},{"bufferView":9,"componentType":5123,"count":6,"max":[3],"min":[0],"type":"SCALAR","normalized":false}],"materials":[{"pbrMetallicRoughness":{"metallicFactor":0,"roughnessFactor":0.4000000059604645},"doubleSided":true,"name":"Material"},{"pbrMetallicRoughness":{"baseColorFactor":[0.8000000715255737,0.0048601808957755566,0.009157257154583931,1],"metallicFactor":0,"roughnessFactor":0.5},"doubleSided":true,"name":"Material.001"},{"pbrMetallicRoughness":{"metallicFactor":0,"roughnessFactor":0.4000000059604645},"doubleSided":true,"name":"Material.003"},{"pbrMetallicRoughness":{"baseColorFactor":[0.0022535528987646103,0,0.8000000715255737,1],"metallicFactor":0,"roughnessFactor":0.5},"doubleSided":true,"name":"Material.002"}],"meshes":[{"primitives":[{"mode":4,"attributes":{"POSITION":0,"NORMAL":1,"TEXCOORD_0":2,"TEXCOORD_1":3},"indices":4,"material":0}]},{"primitives":[{"mode":4,"attributes":{"POSITION":5,"NORMAL":6,"TEXCOORD_0":7,"TEXCOORD_1":8},"indices":9,"material":1}]}],"extensionsUsed":["MOZ_hubs_components"]}