{
    "asset": {
        "generator": "Maya2glTF V0.9.7-BETA ab18f62",
        "version": "2.0"
    },
    "scenes": [
        {
            "nodes": [
                0
            ]
        }
    ],
    "scene": 0,
    "nodes": [
        {
            "children": [
                1
            ],
            "name": "TrimCapCornOut"
        },
        {
            "mesh": 0,
            "name": "TrimCapCornOutShape"
        }
    ],
    "meshes": [
        {
            "primitives": [
                {
                    "attributes": {
                        "NORMAL": 1,
                        "POSITION": 2,
                        "TANGENT": 3,
                        "TEXCOORD_0": 4
                    },
                    "indices": 0,
                    "mode": 4,
                    "material": 0
                }
            ],
            "name": "TrimCapCornOutShape"
        }
    ],
    "accessors": [
        {
            "bufferView": 0,
            "byteOffset": 0,
            "componentType": 5123,
            "count": 48,
            "max": [
                29
            ],
            "min": [
                0
            ],
            "type": "SCALAR"
        },
        {
            "bufferView": 1,
            "byteOffset": 0,
            "componentType": 5126,
            "count": 30,
            "max": [
                1.0,
                1.0,
                1.0
            ],
            "min": [
                -1.0,
                -1.0,
                -1.0
            ],
            "type": "VEC3"
        },
        {
            "bufferView": 1,
            "byteOffset": 360,
            "componentType": 5126,
            "count": 30,
            "max": [
                0.21850097179412845,
                0.016000060364603998,
                0.21850112080574037
            ],
            "min": [
                -0.21850097179412845,
                -0.265999972820282,
                -0.2185024917125702
            ],
            "type": "VEC3"
        },
        {
            "bufferView": 2,
            "byteOffset": 0,
            "componentType": 5126,
            "count": 30,
            "max": [
                1.0,
                2.7775943767238688e-9,
                1.0,
                1.0
            ],
            "min": [
                -0.000025972405637730849,
                -1.0,
                -0.003198152408003807,
                1.0
            ],
            "type": "VEC4"
        },
        {
            "bufferView": 3,
            "byteOffset": 0,
            "componentType": 5126,
            "count": 30,
            "max": [
                0.6069945096969605,
                0.7218385338783264
            ],
            "min": [
                0.538215160369873,
                0.6019781231880188
            ],
            "type": "VEC2"
        }
    ],
    "materials": [
        {
            "pbrMetallicRoughness": {
                "baseColorFactor": [
                    1.0,
                    1.0,
                    1.0,
                    1.0
                ],
                "baseColorTexture": {
                    "index": 0
                },
                "metallicFactor": 0.0,
                "roughnessFactor": 1.0
            },
            "emissiveFactor": [
                0.0,
                0.0,
                0.0
            ],
            "occlusionTexture": {
                "index": 1
            }
        }
    ],
    "textures": [
        {
            "sampler": 0,
            "source": 0
        },
        {
            "sampler": 0,
            "source": 1
        }
    ],
    "images": [
        {
            "uri": "../Textures/ArchMods_Base_Color.jpg"
        },
        {
            "uri": "../Textures/ArchMods_Occlusion.jpg"
        }
    ],
    "samplers": [
        {
            "magFilter": 9729,
            "minFilter": 9987,
            "wrapS": 10497,
            "wrapT": 10497
        }
    ],
    "bufferViews": [
        {
            "buffer": 0,
            "byteOffset": 1440,
            "byteLength": 96,
            "target": 34963
        },
        {
            "buffer": 0,
            "byteOffset": 480,
            "byteLength": 720,
            "byteStride": 12,
            "target": 34962
        },
        {
            "buffer": 0,
            "byteOffset": 0,
            "byteLength": 480,
            "byteStride": 16,
            "target": 34962
        },
        {
            "buffer": 0,
            "byteOffset": 1200,
            "byteLength": 240,
            "byteStride": 8,
            "target": 34962
        }
    ],
    "buffers": [
        {
            "byteLength": 1536,
            "uri": "TrimCapCornOut0.bin"
        }
    ]
}
