{"asset":{"version":"2.0","generator":"GLTFExporter"},"scenes":[{"nodes":[0,1,2,3,4,5,6,7,8],"name":"Scene"}],"scene":0,"nodes":[{"name":"Cube001","extensions":{"MOZ_hubs_components":{"kit-piece":{"id":"Cube.001","name":"Cube.001","tags":["Cubes"],"thumbnailUrl":"./thumbnails/Cube.001.jpeg"}}},"extras":{"name":"Cube.001"},"mesh":0},{"translation":[0,0,-3],"name":"Cube002","extensions":{"MOZ_hubs_components":{"kit-piece":{"id":"Cube.002","name":"Cube.002","tags":["Cubes"],"thumbnailUrl":"./thumbnails/Cube.002.jpeg"}}},"extras":{"name":"Cube.002"},"mesh":1},{"translation":[0,0,-6],"name":"Cube003","extensions":{"MOZ_hubs_components":{"kit-piece":{"id":"Cube.003","name":"Cube.003","tags":["Cubes"],"thumbnailUrl":"./thumbnails/Cube.003.jpeg"}}},"extras":{"name":"Cube.003"},"mesh":2},{"translation":[3,0,0],"name":"Sphere001","extensions":{"MOZ_hubs_components":{"kit-piece":{"id":"Sphere.001","name":"Sphere.001","tags":["Spheres"],"thumbnailUrl":"./thumbnails/Sphere.001.jpeg"}}},"extras":{"name":"Sphere.001"},"mesh":3},{"translation":[3,0,-3],"name":"Sphere002","extensions":{"MOZ_hubs_components":{"kit-piece":{"id":"Sphere.002","name":"Sphere.002","tags":["Spheres"],"thumbnailUrl":"./thumbnails/Sphere.002.jpeg"}}},"extras":{"name":"Sphere.002"},"mesh":4},{"translation":[3,0,-6],"name":"Sphere003","extensions":{"MOZ_hubs_components":{"kit-piece":{"id":"Sphere.003","name":"Sphere.003","tags":["Spheres"],"thumbnailUrl":"./thumbnails/Sphere.003.jpeg"}}},"extras":{"name":"Sphere.003"},"mesh":5},{"translation":[5,0,0],"name":"Cone002","extensions":{"MOZ_hubs_components":{"kit-piece":{"id":"Cone.002","name":"Cone.002","tags":["Cones"],"thumbnailUrl":"./thumbnails/Cone.002.jpeg"}}},"extras":{"name":"Cone.002"},"mesh":6},{"translation":[5,0,-6],"name":"Cone003","extensions":{"MOZ_hubs_components":{"kit-piece":{"id":"Cone.003","name":"Cone.003","tags":["Cones"],"thumbnailUrl":"./thumbnails/Cone.003.jpeg"}}},"extras":{"name":"Cone.003"},"mesh":7},{"translation":[5,0,-3],"name":"Cone001","extensions":{"MOZ_hubs_components":{"kit-piece":{"id":"Cone.001","name":"Cone.001","tags":["Cones","Cubes"],"thumbnailUrl":"./thumbnails/Cone.001.jpeg"}}},"extras":{"name":"Cone.001"},"mesh":8}],"bufferViews":[{"buffer":0,"byteOffset":0,"byteLength":288,"target":34962,"byteStride":12},{"buffer":0,"byteOffset":288,"byteLength":288,"target":34962,"byteStride":12},{"buffer":0,"byteOffset":576,"byteLength":192,"target":34962,"byteStride":8},{"buffer":0,"byteOffset":768,"byteLength":72,"target":34963},{"buffer":0,"byteOffset":840,"byteLength":288,"target":34962,"byteStride":12},{"buffer":0,"byteOffset":1128,"byteLength":288,"target":34962,"byteStride":12},{"buffer":0,"byteOffset":1416,"byteLength":192,"target":34962,"byteStride":8},{"buffer":0,"byteOffset":1608,"byteLength":288,"target":34962,"byteStride":12},{"buffer":0,"byteOffset":1896,"byteLength":288,"target":34962,"byteStride":12},{"buffer":0,"byteOffset":2184,"byteLength":192,"target":34962,"byteStride":8},{"buffer":0,"byteOffset":2376,"byteLength":23808,"target":34962,"byteStride":12},{"buffer":0,"byteOffset":26184,"byteLength":23808,"target":34962,"byteStride":12},{"buffer":0,"byteOffset":49992,"byteLength":15872,"target":34962,"byteStride":8},{"buffer":0,"byteOffset":65864,"byteLength":5760,"target":34963},{"buffer":0,"byteOffset":71624,"byteLength":23808,"target":34962,"byteStride":12},{"buffer":0,"byteOffset":95432,"byteLength":23808,"target":34962,"byteStride":12},{"buffer":0,"byteOffset":119240,"byteLength":15872,"target":34962,"byteStride":8},{"buffer":0,"byteOffset":135112,"byteLength":5760,"target":34963},{"buffer":0,"byteOffset":140872,"byteLength":23808,"target":34962,"byteStride":12},{"buffer":0,"byteOffset":164680,"byteLength":23808,"target":34962,"byteStride":12},{"buffer":0,"byteOffset":188488,"byteLength":15872,"target":34962,"byteStride":8},{"buffer":0,"byteOffset":204360,"byteLength":5760,"target":34963},{"buffer":0,"byteOffset":210120,"byteLength":1536,"target":34962,"byteStride":12},{"buffer":0,"byteOffset":211656,"byteLength":1536,"target":34962,"byteStride":12},{"buffer":0,"byteOffset":213192,"byteLength":1024,"target":34962,"byteStride":8},{"buffer":0,"byteOffset":214216,"byteLength":372,"target":34963},{"buffer":0,"byteOffset":214588,"byteLength":1536,"target":34962,"byteStride":12},{"buffer":0,"byteOffset":216124,"byteLength":1536,"target":34962,"byteStride":12},{"buffer":0,"byteOffset":217660,"byteLength":1024,"target":34962,"byteStride":8},{"buffer":0,"byteOffset":218684,"byteLength":1536,"target":34962,"byteStride":12},{"buffer":0,"byteOffset":220220,"byteLength":1536,"target":34962,"byteStride":12},{"buffer":0,"byteOffset":221756,"byteLength":1024,"target":34962,"byteStride":8}],"buffers":[{"byteLength":222780,"uri":"scene.bin"}],"accessors":[{"bufferView":0,"componentType":5126,"count":24,"max":[1,1,1],"min":[-1,-1,-1],"type":"VEC3"},{"bufferView":1,"componentType":5126,"count":24,"max":[1,1,1],"min":[-1,-1,-1],"type":"VEC3"},{"bufferView":2,"componentType":5126,"count":24,"max":[0.875,1],"min":[0.125,0],"type":"VEC2"},{"bufferView":3,"componentType":5123,"count":36,"max":[23],"min":[0],"type":"SCALAR"},{"bufferView":4,"componentType":5126,"count":24,"max":[0.44483911991119385,1,0.44483911991119385],"min":[-0.44483911991119385,-1,-0.44483911991119385],"type":"VEC3"},{"bufferView":5,"componentType":5126,"count":24,"max":[1,1,1],"min":[-1,-1,-1],"type":"VEC3"},{"bufferView":6,"componentType":5126,"count":24,"max":[0.875,1],"min":[0.125,0],"type":"VEC2"},{"bufferView":7,"componentType":5126,"count":24,"max":[0.30434679985046387,0.6859431862831116,0.6859431862831116],"min":[-0.30434679985046387,-0.6859431862831116,-0.6859431862831116],"type":"VEC3"},{"bufferView":8,"componentType":5126,"count":24,"max":[0.9999999403953552,1,1],"min":[-0.9999999403953552,-1,-1],"type":"VEC3"},{"bufferView":9,"componentType":5126,"count":24,"max":[0.875,1],"min":[0.125,0],"type":"VEC2"},{"bufferView":10,"componentType":5126,"count":1984,"max":[1.000000238418579,1,1.0000003576278687],"min":[-0.9999998211860657,-1,-1],"type":"VEC3"},{"bufferView":11,"componentType":5126,"count":1984,"max":[0.9904382228851318,0.99513840675354,0.9904382824897766],"min":[-0.9904382228851318,-0.99513840675354,-0.9904384016990662],"type":"VEC3"},{"bufferView":12,"componentType":5126,"count":1984,"max":[1.000000238418579,1],"min":[0,0],"type":"VEC2"},{"bufferView":13,"componentType":5123,"count":2880,"max":[1983],"min":[0],"type":"SCALAR"},{"bufferView":14,"componentType":5126,"count":1984,"max":[0.3909940719604492,1,0.3909934163093567],"min":[-0.3909953832626343,-1,-0.39099621772766113],"type":"VEC3"},{"bufferView":15,"componentType":5126,"count":1984,"max":[0.9944548010826111,0.9694271683692932,0.9944546818733215],"min":[-0.9944547414779663,-0.9694271683692932,-0.9944546818733215],"type":"VEC3"},{"bufferView":16,"componentType":5126,"count":1984,"max":[1.000000238418579,1],"min":[0,0],"type":"VEC2"},{"bufferView":17,"componentType":5123,"count":2880,"max":[1983],"min":[0],"type":"SCALAR"},{"bufferView":18,"componentType":5126,"count":1984,"max":[0.4772791862487793,1,1.0000003576278687],"min":[-0.47728025913238525,-1,-1],"type":"VEC3"},{"bufferView":19,"componentType":5126,"count":1984,"max":[0.9977975487709045,0.9949812889099121,0.974839985370636],"min":[-0.9977974891662598,-0.9949812889099121,-0.9748398661613464],"type":"VEC3"},{"bufferView":20,"componentType":5126,"count":1984,"max":[1.000000238418579,1],"min":[0,0],"type":"VEC2"},{"bufferView":21,"componentType":5123,"count":2880,"max":[1983],"min":[0],"type":"SCALAR"},{"bufferView":22,"componentType":5126,"count":128,"max":[1,1,1],"min":[-1,-1,-1],"type":"VEC3"},{"bufferView":23,"componentType":5126,"count":128,"max":[0.89097660779953,0.44548842310905457,0.8909766674041748],"min":[-0.8909767866134644,-1,-0.8909766674041748],"type":"VEC3"},{"bufferView":24,"componentType":5126,"count":128,"max":[0.9900000095367432,0.9900000095367432],"min":[0.01000000536441803,0.5099999904632568],"type":"VEC2"},{"bufferView":25,"componentType":5123,"count":186,"max":[127],"min":[0],"type":"SCALAR"},{"bufferView":26,"componentType":5126,"count":128,"max":[1,-0.08305764198303223,1],"min":[-1,-0.9661544561386108,-1],"type":"VEC3"},{"bufferView":27,"componentType":5126,"count":128,"max":[0.6605328321456909,0.7479733228683472,0.6605327725410461],"min":[-0.6605328321456909,-1,-0.6605327725410461],"type":"VEC3"},{"bufferView":28,"componentType":5126,"count":128,"max":[0.9900000095367432,0.9900000095367432],"min":[0.01000000536441803,0.5099999904632568],"type":"VEC2"},{"bufferView":29,"componentType":5126,"count":128,"max":[0.4048837423324585,1,0.4048832654953003],"min":[-0.40488314628601074,-1,-0.40488356351852417],"type":"VEC3"},{"bufferView":30,"componentType":5126,"count":128,"max":[0.9755827188491821,0.19749867916107178,0.9755828380584717],"min":[-0.9755828380584717,-1,-0.9755828380584717],"type":"VEC3"},{"bufferView":31,"componentType":5126,"count":128,"max":[0.9900000095367432,0.9900000095367432],"min":[0.01000000536441803,0.5099999904632568],"type":"VEC2"}],"materials":[{"pbrMetallicRoughness":{"metallicFactor":1,"roughnessFactor":1}}],"meshes":[{"primitives":[{"mode":4,"attributes":{"POSITION":0,"NORMAL":1,"TEXCOORD_0":2},"indices":3,"material":0}]},{"primitives":[{"mode":4,"attributes":{"POSITION":4,"NORMAL":5,"TEXCOORD_0":6},"indices":3,"material":0}]},{"primitives":[{"mode":4,"attributes":{"POSITION":7,"NORMAL":8,"TEXCOORD_0":9},"indices":3,"material":0}]},{"primitives":[{"mode":4,"attributes":{"POSITION":10,"NORMAL":11,"TEXCOORD_0":12},"indices":13,"material":0}]},{"primitives":[{"mode":4,"attributes":{"POSITION":14,"NORMAL":15,"TEXCOORD_0":16},"indices":17,"material":0}]},{"primitives":[{"mode":4,"attributes":{"POSITION":18,"NORMAL":19,"TEXCOORD_0":20},"indices":21,"material":0}]},{"primitives":[{"mode":4,"attributes":{"POSITION":22,"NORMAL":23,"TEXCOORD_0":24},"indices":25,"material":0}]},{"primitives":[{"mode":4,"attributes":{"POSITION":26,"NORMAL":27,"TEXCOORD_0":28},"indices":25,"material":0}]},{"primitives":[{"mode":4,"attributes":{"POSITION":29,"NORMAL":30,"TEXCOORD_0":31},"indices":25,"material":0}]}],"extensionsUsed":["MOZ_hubs_components"]}