{"asset":{"version":"2.0","generator":"THREE.GLTFExporter"},"scenes":[{"nodes":[0],"name":"Scene","extras":{"components":{"ambient-light":{"color":"white","intensity":1},"directional-light":{"color":"white","intensity":1,"castShadow":true,"elevation":63,"azimuth":245}}}}],"scene":0,"nodes":[{"name":"CombinedMesh","mesh":0}],"bufferViews":[{"buffer":0,"byteOffset":0,"byteLength":12672,"target":34962,"byteStride":12},{"buffer":0,"byteOffset":12672,"byteLength":12672,"target":34962,"byteStride":12},{"buffer":0,"byteOffset":25344,"byteLength":8448,"target":34962,"byteStride":8},{"buffer":0,"byteOffset":33792,"byteLength":8448,"target":34962,"byteStride":8},{"buffer":0,"byteOffset":42240,"byteLength":4584,"target":34963}],"buffers":[{"byteLength":46824,"uri":"f4ac3419b5.bin"}],"accessors":[{"bufferView":0,"componentType":5126,"count":1056,"max":[1,1,1],"min":[-1,-1,-1],"type":"VEC3"},{"bufferView":1,"componentType":5126,"count":1056,"max":[6,5.019177436828613,5.5],"min":[-6,-2.229541301727295,-6],"type":"VEC3"},{"bufferView":2,"componentType":5126,"count":1056,"max":[0.995975136756897,0.9983997941017151],"min":[0.0024772081524133682,0.004678547382354736],"type":"VEC2"},{"bufferView":3,"componentType":5126,"count":1056,"max":[0.995975136756897,0.9983997941017151],"min":[0.0024772081524133682,0.004678547382354736],"type":"VEC2"},{"bufferView":4,"componentType":5123,"count":2292,"max":[1055],"min":[0],"type":"SCALAR"}],"materials":[{"pbrMetallicRoughness":{"metallicFactor":0,"roughnessFactor":1,"baseColorTexture":{"index":0}},"occlusionTexture":{"index":1},"extensions":{"MOZ_alt_materials":{"KHR_materials_unlit":1}}},{"pbrMetallicRoughness":{"baseColorTexture":{"index":2},"roughnessFactor":0.9,"metallicFactor":0},"extensions":{"KHR_materials_unlit":{}}}],"textures":[{"sampler":0,"source":0},{"sampler":1,"source":1},{"source":2}],"samplers":[{"magFilter":9729,"minFilter":9987},{"magFilter":9729,"minFilter":9987}],"images":[{"mimeType":"image/jpeg","uri":"2fa932aed5.jpg"},{"mimeType":"image/jpeg","uri":"59e349acd9.jpg"},{"uri":"f268822f71.jpg"}],"meshes":[{"primitives":[{"mode":4,"attributes":{"NORMAL":0,"POSITION":1,"TEXCOORD_0":2,"TEXCOORD_1":3},"indices":4,"material":0}]}],"extensionsUsed":["MOZ_alt_materials","KHR_materials_unlit"]}
